<svg width="20" height="17" viewBox="0 0 20 17" fill="none" xmlns="http://www.w3.org/2000/svg">
<path d="M11.1621 3.05881C10.7806 3.01755 10.393 2.9939 10 2.98801C8.28292 2.99563 6.50296 3.41328 4.81812 4.21356C3.56715 4.83224 2.34857 5.70565 1.29028 6.78303C0.770534 7.33301 0.107183 8.12934 0 8.97897C0.0126667 9.71498 0.802551 10.6234 1.29028 11.175C2.28267 12.21 3.46952 13.0584 4.81812 13.7444C4.86397 13.7667 4.90994 13.7886 4.95605 13.8103L3.70485 15.9953L5.40494 17L14.5952 1.00009L12.9588 0L11.1621 3.05881ZM15.0427 4.15008L13.7939 6.31428C14.3684 7.06062 14.7095 7.98098 14.7095 8.97897C14.7095 11.4665 12.6008 13.4832 9.99878 13.4832C9.88629 13.4832 9.77728 13.4711 9.66674 13.4637L8.84032 14.8943C9.22146 14.9351 9.60683 14.9648 9.99999 14.9699C11.7187 14.9622 13.4977 14.5398 15.1807 13.7444C16.4316 13.1257 17.6514 12.2523 18.7097 11.175C19.2295 10.625 19.8928 9.82864 20 8.97897C19.9873 8.24299 19.1974 7.33455 18.7097 6.78301C17.7173 5.74795 16.5293 4.89954 15.1807 4.21353C15.1351 4.19146 15.0885 4.17162 15.0427 4.15008ZM9.99879 4.47479C10.1129 4.47479 10.2261 4.47935 10.3381 4.48699L9.37012 6.16294C8.01156 6.43836 6.99219 7.59421 6.99219 8.97777C6.99219 9.32533 7.05621 9.65806 7.17407 9.96648C7.17421 9.96683 7.17394 9.96737 7.17407 9.96772L6.20361 11.6485C5.62775 10.9015 5.28807 9.97813 5.28807 8.97896C5.28809 6.49147 7.39681 4.47477 9.99879 4.47479ZM12.8149 8.00856L10.6336 11.7877C11.9848 11.5071 12.9968 10.3565 12.9968 8.97777C12.9968 8.63655 12.9287 8.31215 12.8149 8.00856Z" fill="black"/>
</svg>
