<svg width="24" height="14" viewBox="0 0 24 14" fill="none" xmlns="http://www.w3.org/2000/svg">
<path d="M11.8125 0C5.20975 0 0 6.74975 0 6.74975C0 6.74975 5.20975 13.5004 11.8125 13.5004C16.8612 13.5004 23.625 6.74975 23.625 6.74975C23.625 6.74975 16.8612 0 11.8125 0ZM11.8125 10.955C9.49375 10.955 7.60637 9.0685 7.60637 6.74975C7.60637 4.431 9.49375 2.54362 11.8125 2.54362C14.1313 2.54362 16.0186 4.431 16.0186 6.74975C16.0186 9.0685 14.1313 10.955 11.8125 10.955ZM11.8125 4.2945C11.4862 4.28834 11.162 4.34728 10.8588 4.46788C10.5556 4.58848 10.2794 4.76832 10.0465 4.99688C9.81358 5.22544 9.62856 5.49814 9.50226 5.79903C9.37595 6.09993 9.3109 6.42298 9.3109 6.74931C9.3109 7.07564 9.37595 7.3987 9.50226 7.69959C9.62856 8.00049 9.81358 8.27318 10.0465 8.50175C10.2794 8.73031 10.5556 8.91014 10.8588 9.03074C11.162 9.15134 11.4862 9.21029 11.8125 9.20413C12.4555 9.19198 13.0681 8.92802 13.5186 8.46897C13.969 8.00993 14.2214 7.39246 14.2214 6.74931C14.2214 6.10617 13.969 5.4887 13.5186 5.02965C13.0681 4.57061 12.4555 4.30664 11.8125 4.2945Z" fill="black"/>
</svg>
